<svg width="201" height="95" viewBox="0 0 201 95" fill="none" xmlns="http://www.w3.org/2000/svg">
<g id="undraw_Outer_space_drqu 1">
<g clip-path="url(#clip0)">
<g id="leftrocket">
<path id="Vector" d="M44.1797 21.5132V14.6818L51.9318 15.9024V20.2926L44.1797 21.5132Z" fill="#535461"/>
<g id="Group" opacity="0.1">
<path id="Vector_2" opacity="0.1" d="M48.7351 14.3162V19.3858L50.9012 19.0461V14.6559L48.7351 14.3162Z" fill="black"/>
</g>
<path id="Vector_3" d="M144.456 16.7434C144.722 17.0011 144.935 17.3156 145.08 17.6667C145.226 18.0177 145.301 18.3975 145.301 18.7815C145.301 19.1656 145.226 19.5454 145.08 19.8964C144.935 20.2475 144.722 20.562 144.456 20.8197C143.041 22.2418 141.171 23.5229 139.182 24.6456C133.198 27.9661 126.55 29.684 119.809 29.6518L49.6228 29.6518V8.06094L120.105 8.06094C126.66 8.03391 133.127 9.66859 138.978 12.8311C141.711 14.3281 143.423 15.6926 144.456 16.7434Z" fill="url(#paint0_linear)"/>
<g id="Vector_4">
<path d="M119.739 7.8447L119.715 12.9689H113.811L80.9462 0L119.739 7.8447Z" fill="#535461"/>
<path d="M119.739 7.8447L119.715 12.9689H113.811L80.9462 0L119.739 7.8447Z" fill="#535461"/>
<path d="M119.739 7.8447L119.715 12.9689H113.811L80.9462 0L119.739 7.8447Z" stroke="black"/>
<path d="M119.739 7.8447L119.715 12.9689H113.811L80.9462 0L119.739 7.8447Z" stroke="url(#paint1_linear)"/>
</g>
<path id="Vector_5" d="M118.843 22.4603L118.819 27.5846H112.915V22.4603H118.843Z" fill="#535461"/>
<g id="Group_2" opacity="0.1">
<path id="Vector_6" opacity="0.1" d="M139.508 22.5784C141.496 21.4556 143.367 20.1746 144.782 18.7524C145.198 18.3509 145.48 17.8144 145.583 17.2251C145.687 16.6359 145.606 16.0266 145.355 15.4908C145.211 15.7994 145.017 16.0782 144.782 16.3141C143.367 17.7334 141.496 19.0173 139.508 20.1371C133.524 23.4592 126.876 25.1771 120.134 25.1434L49.954 25.1434V27.5846L120.132 27.5846C126.874 27.6173 133.523 25.8994 139.508 22.5784V22.5784Z" fill="black"/>
</g>
</g>
<g id="rightrocket">
<g id="Group 1">
<path id="Vector_7" d="M44.1286 77.7273V70.8182L51.9318 72.0503V76.4952L44.1286 77.7273Z" fill="#535461"/>
<g id="Group_3" opacity="0.1">
<path id="Vector_8" opacity="0.1" d="M48.7698 71.8867V76.9591L50.9359 76.6194V72.2264L48.7698 71.8867Z" fill="black"/>
</g>
<path id="Vector_9" d="M144.725 75.6205C144.991 75.3627 145.204 75.0482 145.35 74.6972C145.495 74.3461 145.57 73.9663 145.57 73.5823C145.57 73.1982 145.495 72.8184 145.35 72.4674C145.204 72.1163 144.991 71.8018 144.725 71.5441C143.31 70.1248 141.44 68.8409 139.451 67.7211C133.467 64.3993 126.819 62.6813 120.078 62.7148H49.8919V84.3058H120.374C126.929 84.3328 133.396 82.6981 139.247 79.5356C141.981 78.0358 143.692 76.6712 144.725 75.6205Z" fill="url(#paint2_linear)"/>
<path id="Vector_10" d="M118.878 62.7148L118.853 67.8362H112.95V62.7148H118.878Z" fill="#535461"/>
<path id="Vector_11" d="M118.878 79.0577L118.853 84.1791L80.8922 95.0379L112.95 79.0577H118.878Z" fill="#535461"/>
<g id="Group_4" opacity="0.1">
<path id="Vector_12" opacity="0.1" d="M139.349 69.6729C141.337 70.7927 143.208 72.0767 144.623 73.4959C144.891 73.7613 145.105 74.0826 145.253 74.4402C145.468 73.9125 145.524 73.3257 145.411 72.7626C145.298 72.1995 145.022 71.6886 144.623 71.3023C143.208 69.8802 141.337 68.5962 139.349 67.4764C133.365 64.1559 126.717 62.438 119.976 62.4702L49.7843 62.4702V64.6667H119.97C126.713 64.6322 133.363 66.3502 139.349 69.6729V69.6729Z" fill="black"/>
</g>
</g>
</g>
<g id="mainfire">
<path id="Vector_13" d="M13.4538 52.5556H24.0255C-23.1406 52.5556 24.3542 50.228 24.9394 49.3879C25.5245 48.5477 26.3181 48.0757 27.1457 48.0757H41.4377V57.2879H27.1457C26.3181 57.2879 25.5245 56.8159 24.9394 55.9757C24.3542 55.1356 -14.5302 52.5556 13.4538 52.5556Z" fill="url(#paint3_linear)"/>
<path id="Vector_14" d="M4.43974 38.1617H18.3372H24.0279C-21.1225 38.1617 24.3566 35.8341 24.9416 34.994C25.5267 34.1538 26.3202 33.6818 27.1476 33.6818H41.4377V42.8939H27.1476C26.3202 42.8939 25.5267 42.422 24.9416 41.5818C24.3566 40.7417 4.43974 39.8931 4.43974 38.1617Z" fill="url(#paint4_linear)"/>
</g>
<g id="sidefire">
<path id="Vector_15" d="M18.499 18.7312L26.8 18.0039C7.73596 19.5268 27.1272 16.2779 27.7095 15.6549C28.2918 15.0318 29.0816 14.6818 29.9052 14.6818H44.1285V21.5132H29.9052C29.0816 21.5132 28.2918 21.1632 27.7095 20.5402C27.1272 19.9172 18.499 19.6123 18.499 18.7312Z" fill="url(#paint5_linear)"/>
<path id="Vector_16" d="M18.5663 74.1781H27.1314C6.65043 73.1474 27.4523 72.4324 28.0235 71.8023C28.5947 71.1722 29.3694 70.8182 30.1772 70.8182H44.1285V77.7273H30.1772C29.3694 77.7273 28.5947 77.3733 28.0235 76.7432C27.4523 76.1131 15.3991 75.1622 18.5663 74.1781Z" fill="url(#paint6_linear)"/>
</g>
<g id="rocket">
<path id="Vector_17" d="M41.4377 42.7788V33.5667L53.2771 35.2095V41.136L41.4377 42.7788Z" fill="#535461"/>
<g id="Group_5" opacity="0.1">
<path id="Vector_18" opacity="0.1" d="M50.0805 36.9723V42.0447L52.2466 41.705V37.312L50.0805 36.9723Z" fill="black"/>
</g>
<path id="Vector_19" d="M41.4377 57.1727V47.9606L53.2771 49.6034V55.5261L41.4377 57.1727Z" fill="#535461"/>
<g id="Group_6" opacity="0.1">
<path id="Vector_20" opacity="0.1" d="M50.0805 50.8768V55.9493L52.2466 55.6067V51.2165L50.0805 50.8768Z" fill="black"/>
</g>
<path id="Vector_21" d="M117.223 69.5112V20.7273H115.399V69.5112H117.223Z" fill="#535461"/>
<path id="Vector_22" d="M199.733 49.4087C200.13 49.052 200.449 48.6067 200.668 48.1042C200.887 47.6017 201 47.054 201 46.4996C201 45.9453 200.887 45.3976 200.668 44.8951C200.449 44.3925 200.13 43.9473 199.733 43.5906C197.613 41.5755 194.812 39.733 191.831 38.1209C182.994 33.3824 172.963 30.9758 162.792 30.9758L50.1539 30.9758V61.7788L163.244 61.7788C173.127 61.7788 182.887 59.4758 191.524 54.9733C195.622 52.8574 198.17 50.9085 199.733 49.4087Z" fill="url(#paint7_radial)"/>
<path id="Vector_23" d="M188.622 52.623V41.2831C188.622 39.2473 187.017 37.597 185.037 37.597H183.867C181.886 37.597 180.281 39.2473 180.281 41.2831V52.623C180.281 54.6588 181.886 56.3091 183.867 56.3091H185.037C187.017 56.3091 188.622 54.6588 188.622 52.623Z" fill="white"/>
<g id="Group_7" opacity="0.1">
<path id="Vector_24" opacity="0.1" d="M160.275 61.0274V30.5382H159.169V61.0274H160.275Z" fill="black"/>
</g>
</g>
</g>
</g>
<defs>
<linearGradient id="paint0_linear" x1="145.301" y1="18.8564" x2="49.5448" y2="18.7759" gradientUnits="userSpaceOnUse">
<stop stop-color="#0702FF"/>
<stop offset="1"/>
</linearGradient>
<linearGradient id="paint1_linear" x1="119.763" y1="53.0417" x2="80.9462" y2="53.0417" gradientUnits="userSpaceOnUse">
<stop stop-color="white"/>
<stop offset="1" stop-color="white" stop-opacity="0"/>
</linearGradient>
<linearGradient id="paint2_linear" x1="49.8138" y1="73.5909" x2="145.605" y2="73.5909" gradientUnits="userSpaceOnUse">
<stop offset="0.00280899"/>
<stop offset="1" stop-color="#0702FF"/>
</linearGradient>
<linearGradient id="paint3_linear" x1="41.4377" y1="52.6837" x2="24.0255" y2="52.6837" gradientUnits="userSpaceOnUse">
<stop stop-color="#E0E0E0"/>
<stop offset="0.31" stop-color="#FCCC63"/>
<stop offset="0.77" stop-color="#F55F44"/>
</linearGradient>
<linearGradient id="paint4_linear" x1="41.4377" y1="38.2898" x2="24.0279" y2="38.2898" gradientUnits="userSpaceOnUse">
<stop stop-color="#E0E0E0"/>
<stop offset="0.31" stop-color="#FCCC63"/>
<stop offset="0.77" stop-color="#F55F44"/>
</linearGradient>
<linearGradient id="paint5_linear" x1="44.1285" y1="18.0989" x2="26.8" y2="18.0989" gradientUnits="userSpaceOnUse">
<stop stop-color="#E0E0E0"/>
<stop offset="0.31" stop-color="#FCCC63"/>
<stop offset="0.77" stop-color="#F55F44"/>
</linearGradient>
<linearGradient id="paint6_linear" x1="44.1285" y1="74.2742" x2="27.1314" y2="74.2742" gradientUnits="userSpaceOnUse">
<stop stop-color="#E0E0E0"/>
<stop offset="0.31" stop-color="#FCCC63"/>
<stop offset="0.77" stop-color="#F55F44"/>
</linearGradient>
<radialGradient id="paint7_radial" cx="0" cy="0" r="1" gradientUnits="userSpaceOnUse" gradientTransform="translate(111.936 46.3053) rotate(-179.954) scale(89.0643 18.1871)">
<stop stop-color="#0038FF"/>
<stop offset="0.920594"/>
</radialGradient>
<clipPath id="clip0">
<rect x="201" width="95" height="201" transform="rotate(90 201 0)" fill="white"/>
</clipPath>
</defs>
</svg>
